<mxfile host="app.diagrams.net" agent="Mozilla/5.0 (Windows NT 10.0; Win64; x64) AppleWebKit/537.36 (KHTML, like Gecko) Chrome/126.0.0.0 Safari/537.36" version="24.7.6">
  <diagram name="第 1 页" id="mMlDlkdDfd4doMFzdmtv">
    <mxGraphModel dx="2901" dy="1106" grid="1" gridSize="10" guides="1" tooltips="1" connect="1" arrows="1" fold="1" page="1" pageScale="1" pageWidth="827" pageHeight="1169" math="0" shadow="0">
      <root>
        <mxCell id="0" />
        <mxCell id="1" parent="0" />
        <mxCell id="ULLMlvIF7ydcDEZkrely-6" style="edgeStyle=orthogonalEdgeStyle;rounded=0;orthogonalLoop=1;jettySize=auto;html=1;exitX=1;exitY=0.5;exitDx=0;exitDy=0;" edge="1" parent="1" source="ULLMlvIF7ydcDEZkrely-1" target="ULLMlvIF7ydcDEZkrely-2">
          <mxGeometry relative="1" as="geometry" />
        </mxCell>
        <mxCell id="ULLMlvIF7ydcDEZkrely-1" value="&lt;span style=&quot;color: rgb(44, 62, 80); font-family: -apple-system, BlinkMacSystemFont, &amp;quot;Segoe UI&amp;quot;, Roboto, &amp;quot;Helvetica Neue&amp;quot;, Arial, &amp;quot;Noto Sans&amp;quot;, STHeiti, &amp;quot;Microsoft YaHei&amp;quot;, SimSun, sans-serif, &amp;quot;Apple Color Emoji&amp;quot;, &amp;quot;Segoe UI Emoji&amp;quot;, &amp;quot;Segoe UI Symbol&amp;quot;, &amp;quot;Noto Color Emoji&amp;quot;; font-size: 17px; text-align: justify; background-color: rgb(255, 255, 255);&quot;&gt;默认启动选项UEFI OS&lt;/span&gt;" style="rounded=1;whiteSpace=wrap;html=1;" vertex="1" parent="1">
          <mxGeometry x="-750" y="200" width="120" height="60" as="geometry" />
        </mxCell>
        <mxCell id="ULLMlvIF7ydcDEZkrely-7" style="edgeStyle=orthogonalEdgeStyle;rounded=0;orthogonalLoop=1;jettySize=auto;html=1;entryX=0;entryY=0.5;entryDx=0;entryDy=0;" edge="1" parent="1" source="ULLMlvIF7ydcDEZkrely-2" target="ULLMlvIF7ydcDEZkrely-3">
          <mxGeometry relative="1" as="geometry" />
        </mxCell>
        <mxCell id="ULLMlvIF7ydcDEZkrely-2" value="&lt;span style=&quot;color: rgb(44, 62, 80); font-family: -apple-system, BlinkMacSystemFont, &amp;quot;Segoe UI&amp;quot;, Roboto, &amp;quot;Helvetica Neue&amp;quot;, Arial, &amp;quot;Noto Sans&amp;quot;, STHeiti, &amp;quot;Microsoft YaHei&amp;quot;, SimSun, sans-serif, &amp;quot;Apple Color Emoji&amp;quot;, &amp;quot;Segoe UI Emoji&amp;quot;, &amp;quot;Segoe UI Symbol&amp;quot;, &amp;quot;Noto Color Emoji&amp;quot;; font-size: 17px; text-align: justify; background-color: rgb(255, 255, 255);&quot;&gt;&amp;nbsp;/EFI/boot/bootx64.efi&lt;/span&gt;&lt;div&gt;&lt;span style=&quot;color: rgb(44, 62, 80); font-family: -apple-system, BlinkMacSystemFont, &amp;quot;Segoe UI&amp;quot;, Roboto, &amp;quot;Helvetica Neue&amp;quot;, Arial, &amp;quot;Noto Sans&amp;quot;, STHeiti, &amp;quot;Microsoft YaHei&amp;quot;, SimSun, sans-serif, &amp;quot;Apple Color Emoji&amp;quot;, &amp;quot;Segoe UI Emoji&amp;quot;, &amp;quot;Segoe UI Symbol&amp;quot;, &amp;quot;Noto Color Emoji&amp;quot;; font-size: 17px; text-align: justify; background-color: rgb(255, 255, 255);&quot;&gt;（本质就是/EFI/boot/shimx64.efi）&lt;/span&gt;&lt;/div&gt;" style="rounded=1;whiteSpace=wrap;html=1;" vertex="1" parent="1">
          <mxGeometry x="-580" y="200" width="290" height="60" as="geometry" />
        </mxCell>
        <mxCell id="ULLMlvIF7ydcDEZkrely-8" style="edgeStyle=orthogonalEdgeStyle;rounded=0;orthogonalLoop=1;jettySize=auto;html=1;exitX=1;exitY=0.5;exitDx=0;exitDy=0;entryX=0;entryY=0.5;entryDx=0;entryDy=0;" edge="1" parent="1" source="ULLMlvIF7ydcDEZkrely-3" target="ULLMlvIF7ydcDEZkrely-4">
          <mxGeometry relative="1" as="geometry" />
        </mxCell>
        <mxCell id="ULLMlvIF7ydcDEZkrely-3" value="&lt;span style=&quot;color: rgb(44, 62, 80); font-family: -apple-system, BlinkMacSystemFont, &amp;quot;Segoe UI&amp;quot;, Roboto, &amp;quot;Helvetica Neue&amp;quot;, Arial, &amp;quot;Noto Sans&amp;quot;, STHeiti, &amp;quot;Microsoft YaHei&amp;quot;, SimSun, sans-serif, &amp;quot;Apple Color Emoji&amp;quot;, &amp;quot;Segoe UI Emoji&amp;quot;, &amp;quot;Segoe UI Symbol&amp;quot;, &amp;quot;Noto Color Emoji&amp;quot;; font-size: 17px; text-align: justify; background-color: rgb(255, 255, 255);&quot;&gt;/EFI/boot/fbx64.efi&lt;/span&gt;" style="rounded=1;whiteSpace=wrap;html=1;" vertex="1" parent="1">
          <mxGeometry x="-230" y="200" width="180" height="60" as="geometry" />
        </mxCell>
        <mxCell id="ULLMlvIF7ydcDEZkrely-9" style="edgeStyle=orthogonalEdgeStyle;rounded=0;orthogonalLoop=1;jettySize=auto;html=1;" edge="1" parent="1" source="ULLMlvIF7ydcDEZkrely-4" target="ULLMlvIF7ydcDEZkrely-5">
          <mxGeometry relative="1" as="geometry" />
        </mxCell>
        <mxCell id="ULLMlvIF7ydcDEZkrely-4" value="&lt;span style=&quot;color: rgb(44, 62, 80); font-family: -apple-system, BlinkMacSystemFont, &amp;quot;Segoe UI&amp;quot;, Roboto, &amp;quot;Helvetica Neue&amp;quot;, Arial, &amp;quot;Noto Sans&amp;quot;, STHeiti, &amp;quot;Microsoft YaHei&amp;quot;, SimSun, sans-serif, &amp;quot;Apple Color Emoji&amp;quot;, &amp;quot;Segoe UI Emoji&amp;quot;, &amp;quot;Segoe UI Symbol&amp;quot;, &amp;quot;Noto Color Emoji&amp;quot;; font-size: 17px; text-align: justify; background-color: rgb(255, 255, 255);&quot;&gt;&amp;nbsp;/EFI/ubuntu/BOOTX64.CSV（记录了自定义启动选项的名称为&lt;/span&gt;&lt;code style=&quot;margin: 0px; padding: 3px 6px; border-radius: 4px; background: rgba(127, 127, 127, 0.12); font-size: 0.875em; overflow-wrap: break-word; font-family: var(--font-family-mono); color: rgb(44, 62, 80); text-align: justify;&quot;&gt;ubuntu&lt;/code&gt;&lt;span style=&quot;color: rgb(44, 62, 80); font-family: -apple-system, BlinkMacSystemFont, &amp;quot;Segoe UI&amp;quot;, Roboto, &amp;quot;Helvetica Neue&amp;quot;, Arial, &amp;quot;Noto Sans&amp;quot;, STHeiti, &amp;quot;Microsoft YaHei&amp;quot;, SimSun, sans-serif, &amp;quot;Apple Color Emoji&amp;quot;, &amp;quot;Segoe UI Emoji&amp;quot;, &amp;quot;Segoe UI Symbol&amp;quot;, &amp;quot;Noto Color Emoji&amp;quot;; font-size: 17px; text-align: justify; background-color: rgb(255, 255, 255);&quot;&gt;）&lt;/span&gt;" style="rounded=1;whiteSpace=wrap;html=1;" vertex="1" parent="1">
          <mxGeometry x="10" y="200" width="320" height="60" as="geometry" />
        </mxCell>
        <mxCell id="ULLMlvIF7ydcDEZkrely-5" value="&lt;span style=&quot;color: rgb(44, 62, 80); font-family: -apple-system, BlinkMacSystemFont, &amp;quot;Segoe UI&amp;quot;, Roboto, &amp;quot;Helvetica Neue&amp;quot;, Arial, &amp;quot;Noto Sans&amp;quot;, STHeiti, &amp;quot;Microsoft YaHei&amp;quot;, SimSun, sans-serif, &amp;quot;Apple Color Emoji&amp;quot;, &amp;quot;Segoe UI Emoji&amp;quot;, &amp;quot;Segoe UI Symbol&amp;quot;, &amp;quot;Noto Color Emoji&amp;quot;; font-size: 17px; text-align: justify; background-color: rgb(255, 255, 255);&quot;&gt;自动创建启动选项，并修改BootOrder变量，然后自动执行warm reboot&lt;/span&gt;" style="rounded=1;whiteSpace=wrap;html=1;" vertex="1" parent="1">
          <mxGeometry x="370" y="200" width="320" height="60" as="geometry" />
        </mxCell>
      </root>
    </mxGraphModel>
  </diagram>
</mxfile>
